# xmcd CD database file
#
# Track frame offsets:
#	150
#	19501
#	33859
#	60181
#	75996
#	101326
#	114529
#	135785
#	155883
#	188042
#	201440
#	217969
#
# Disc length: 3129 seconds
#
# Revision: 0
# Processed by: cddbd v1.5.2PL0 Copyright (c) Steve Scherf et al.
# Submitted via: CDex 1.70beta2
#
DISCID=8b0c370c
DTITLE=Jazz Explorers (USA-07-Jazz) - Jazz My Soul
DYEAR=2007
DGENRE=Jazz
TTITLE0=The Blond Situation
TTITLE1=Sunday Morning
TTITLE2=Autumn
TTITLE3=Mo'Trane!
TTITLE4=Our Father, part 1
TTITLE5=InterContiental Ballistic Soul Kiss
TTITLE6=We're Only Human
TTITLE7=Mystique
TTITLE8=Village of orgin
TTITLE9=Our father, part 2
TTITLE10=Moroccan
TTITLE11=In Memoriam, Elvin Jones
EXTD=YEAR: 2007
EXTT0=
EXTT1=
EXTT2=
EXTT3=
EXTT4=
EXTT5=
EXTT6=
EXTT7=
EXTT8=
EXTT9=
EXTT10=
EXTT11=
PLAYORDER=
